<svg xmlns="http://www.w3.org/2000/svg" width="1911.665" height="214.452" viewBox="0 0 1911.665 214.452">
  <path id="パス_8" data-name="パス 8" d="M182.9-150.236v-61.912c-9.372,3.408-10.792,3.976-14.768,3.976-4.828,0-7.668-.568-21.016-4.828-12.5-3.976-24.992-6.248-36.068-6.248-19.028,0-39.192,6.248-53.676,17.324-25.56,18.744-40.044,52.54-40.044,92.3,0,31.524,9.088,57.368,26.7,76.4C60.776-15.336,83.78-5.4,109.34-5.4c24.992,0,46.576-7.668,61.06-21.584,9.94-9.656,17.04-21.016,23.288-37.488l-8.236-3.692c-11.076,32.092-36.636,51.4-68.16,51.4-42.884,0-71.284-38.908-71.284-98.264,0-27.548,5.68-51.688,16.472-69.012,10.224-17.04,29.252-27.548,49.7-27.548a60.865,60.865,0,0,1,47.428,23c7.668,10.224,11.644,20.732,14.2,38.34Zm34.932,37.772c0,29.536,7.952,54.244,23.572,74.124,16.756,21.3,41.748,32.66,72.42,32.66,30.956,0,54.812-10.792,72.42-32.66,15.62-19.312,23.572-44.3,23.572-74.124s-7.952-54.528-23.572-74.408q-25.986-32.376-72.42-32.376c-30.672,0-55.38,11.076-72.42,32.376C225.5-166.708,217.828-142.284,217.828-112.464Zm28.684,0c0-26.98,5.112-49.416,15.336-68.16,11.36-20.164,29.252-30.956,51.972-30.956s40.612,10.508,51.972,30.956c10.224,18.46,15.336,40.612,15.336,68.16s-5.112,49.7-15.336,68.16C354.432-24.14,336.54-13.348,313.82-13.348S273.208-24.14,261.848-44.3C251.624-63.332,246.512-85.484,246.512-112.464ZM473.144-194.54,602.364-8.52h16.188V-166.14c0-33.512,4.544-41.18,25.844-42.316v-6.816H581.064v6.816c11.644.568,17.892,2.84,21.584,7.952,3.408,4.544,4.26,12.78,4.26,38.34V-45.44L488.48-215.272H438.212v6.816c21.3.852,23.288,3.692,23.288,31.524V-62.48c0,21.868-1.7,32.944-5.68,38.34-3.692,5.4-9.656,7.668-20.448,7.668v7.1h62.48v-7.1c-11.36-.284-17.324-2.556-20.732-7.668-3.124-4.544-3.976-10.792-3.976-33.512ZM759.7-208.456c51.12.568,59.072,7.1,66.456,53.392l9.088-.568-5.112-59.64H663.14l-5.112,59.64,9.088.568c7.1-46.292,15.336-52.824,66.172-53.392V-45.44c0,15.9-.852,21.584-4.544,24.708-2.84,2.84-9.656,4.26-21.868,4.26v7.1H786.4v-7.1c-11.36,0-18.744-1.136-21.584-3.692-3.976-3.124-5.112-8.52-5.112-25.276Zm122.688,127.8h79.236l11.928,35.784c2.272,7.1,3.408,12.78,3.408,16.188,0,8.236-5.964,11.644-20.448,12.212v7.1h73.272v-7.1c-16.472-.568-21.868-5.964-29.82-29.252L939.756-217.26l-17.608,1.988L861.656-55.1C850.864-26.412,841.492-16.472,825.3-16.472v7.1H891.76v-7.1C875.288-17.04,867.9-21.584,867.9-31.808c0-5.4,1.988-14.2,5.4-23.288Zm75.544-10.508H886.364l36.92-99.4Zm243.1-59.072v-61.912c-9.372,3.408-10.792,3.976-14.768,3.976-4.828,0-7.668-.568-21.016-4.828-12.5-3.976-24.992-6.248-36.068-6.248-19.028,0-39.192,6.248-53.676,17.324-25.56,18.744-40.044,52.54-40.044,92.3,0,31.524,9.088,57.368,26.7,76.4C1078.916-15.336,1101.92-5.4,1127.48-5.4c24.992,0,46.576-7.668,61.06-21.584,9.94-9.656,17.04-21.016,23.288-37.488l-8.236-3.692c-11.076,32.092-36.636,51.4-68.16,51.4-42.884,0-71.284-38.908-71.284-98.264,0-27.548,5.68-51.688,16.472-69.012,10.224-17.04,29.252-27.548,49.7-27.548a60.865,60.865,0,0,1,47.428,23c7.668,10.224,11.644,20.732,14.2,38.34Zm124.108-58.22c51.12.568,59.072,7.1,66.456,53.392l9.088-.568-5.112-59.64H1228.584l-5.112,59.64,9.088.568c7.1-46.292,15.336-52.824,66.172-53.392V-45.44c0,15.9-.852,21.584-4.544,24.708-2.84,2.84-9.656,4.26-21.868,4.26v7.1h79.52v-7.1c-11.36,0-18.744-1.136-21.584-3.692-3.976-3.124-5.112-8.52-5.112-25.276ZM1544.96-200.5l74.408,188.576h12.212l73.84-188.86V-45.44c0,25.844-1.988,28.4-21.868,28.968v7.1h69.012v-7.1c-20.164-.568-21.868-2.84-21.868-28.968V-179.2c0-26.412,1.42-28.116,21.868-29.252v-6.816H1699.74L1633.284-47.144l-66.74-168.128H1512.3v6.816c11.076.568,13.916,1.42,17.04,4.544,3.124,3.692,4.26,9.94,4.26,24.708v116.44c0,22.152-1.42,33.228-5.68,38.624-3.408,5.112-9.372,7.384-19.312,7.668v7.1h61.344v-7.1c-11.36-.284-17.324-2.556-20.732-7.668-3.408-4.828-4.26-12.5-4.26-38.624ZM1774.716-9.372H1922.68l5.68-56.516-7.952-.568c-7.952,39.192-18.176,48.564-53.96,48.564h-44.872v-94h29.252c16.756,0,27.832,2.272,32.092,6.532,3.976,4.26,5.964,9.656,7.952,22.72h7.952v-66.74h-7.952c-3.124,24.992-8.52,28.968-40.044,28.968h-29.252v-86.336h39.192c36.352,0,46.86,8.52,53.676,42.884l8.236-.568-4.544-50.836h-143.42v6.816c13.064,0,18.176,2.272,20.164,8.236.852,2.556.852,2.84,1.42,21.016V-45.44c-.568,21.3-.568,21.584-3.692,24.992-2.556,2.84-8.236,4.26-17.892,4.26Z" transform="translate(-17.024 219.548)" fill="none" stroke="#3d657b" stroke-width="0.6"/>
</svg>
